<?xml version="1.0" encoding="UTF-8" standalone="no"?>
<svg
   shape-rendering="geometricPrecision"
   width="3955.2329"
   height="2962.3472"
   viewBox="0 0 509.23624 381.4022"
   version="1.1"
   id="svg12"
   xmlns="http://www.w3.org/2000/svg"
   xmlns:svg="http://www.w3.org/2000/svg">
  <defs
     id="defs12" />
  <metadata
     id="metadata1">null</metadata>
  <g
     id="g1">
    <path
       d="M 1.5400002e-7,0.99490396 C 2.526224,-0.13389207 7.0183438,0.62994467 9.7955619,0.61637741 17.215496,0.57838908 24.636788,0.49291534 32.060792,0.49969897 c 25.939245,0.0217076 51.882559,-0.19129836 77.813668,0.19536855 1.87092,2.33085528 3.23036,5.16641258 4.872,7.67092878 3.60211,5.4920267 7.26662,10.9460657 10.88772,16.4285947 10.86874,16.4598 21.63164,32.99422 32.49495,49.45809 30.8818,46.801619 62.19096,93.417369 92.36319,140.678919 11.28118,17.67136 23.08062,35.02252 34.52054,52.59077 3.01871,4.63593 6.06456,9.25558 9.05343,13.91051 0.83439,1.29975 3.15032,3.68623 2.99022,5.27088 -0.445,1.38386 -1.80173,2.64019 -2.62797,3.84089 -2.20468,3.20866 -4.46092,6.38747 -6.58148,9.65311 -7.51898,11.58101 -15.28895,22.9965 -22.84862,34.54903 -2.53165,3.86802 -5.24375,7.60173 -7.82289,11.43448 -0.5956,0.88595 -1.69455,3.66588 -2.66325,3.99149 -4.27369,-5.11893 -7.65465,-11.38293 -11.37615,-16.92651 -8.8255,-13.14803 -17.73105,-26.24722 -26.5267,-39.41696 -31.44484,-47.08247 -62.08379,-94.70897 -94.2694,-141.28945 -0.52641,-0.75841 -3.32397,-4.82587 -3.51392,-4.56402 0.48571,5.55714 0.0936,11.20248 -0.10311,16.77049 -0.0733,2.08257 0.44365,4.76617 -0.1221,6.73071 -7.98841,-9.28272 -15.90897,-18.77708 -23.670802,-28.26196 -2.839627,-3.4705 -5.633126,-7.02648 -8.543303,-10.43186 -0.324258,-0.37989 -2.531651,-3.29549 -2.653756,-3.26971 -0.464001,0.0977 -0.0081,0.94699 -0.01085,1.42049 0.271345,3.34162 0.184515,6.69816 0.14517,10.04927 -0.01899,1.53717 -0.344609,3.36604 0.170947,4.81773 10.845668,14.22256 23.361464,27.30683 34.700974,41.1495 0.64716,1.7149 0.24286,3.7717 0.24557,5.57479 0.004,4.18143 0.31205,8.85535 -0.16416,12.96894 -8.62607,-10.88772 -17.33625,-21.95454 -26.62032,-32.30364 -2.085288,-2.32272 -4.10274,-4.72277 -6.101197,-7.1201 -0.549474,-0.65937 -1.6742,-2.65376 -2.497733,-2.46517 0.38531,3.71743 0.210293,7.54068 0.104468,11.27982 -0.04206,1.49375 -0.601029,3.23036 0.02035,4.63186 8.497175,8.18377 15.530443,18.30088 23.153882,27.30818 2.6931,3.18288 5.33465,6.40511 7.92328,9.6721 1.16679,1.47205 2.9943,3.0662 3.73642,4.79874 0.55355,1.2916 0.19809,3.12183 0.19537,4.49212 -0.007,2.94138 -0.008,5.88412 -0.003,8.8255 0.019,10.85381 0.0366,21.70762 0.005,32.56143 -0.0719,25.09943 0.008,50.19886 0.003,75.29829 -0.003,12.79528 -0.72449,25.80086 0.001,38.57443 -25.951456,-0.25235 -51.917834,-0.12888 -77.876073,-0.10989 -8.593502,0.007 -17.185648,0.003 -25.779151,-0.0204 -4.766178,-0.0122 -9.7209415,-0.3826 -14.46134216,0.15331 -1.158644,-2.24403 -0.26049139,-6.00758 -0.49249154,-8.50532 7.194718,-1.7461 13.5672597,-2.55064 19.6548897,-7.25712 8.24618,-6.37255 11.879493,-16.71622 13.447868,-26.67324 2.775861,-17.62387 1.393358,-36.03735 1.37165,-53.83488 C 34.53196,224.42592 34.64999,164.05161 34.61338,103.6773 34.60194,84.421342 36.11876,64.46526 33.749916,45.33271 32.505798,35.288867 29.614615,24.804089 22.087499,17.561885 18.040386,13.668082 12.582277,11.425413 7.2557708,9.9777868 5.1284244,9.3984648 1.9767499,9.6725235 0.10446806,8.7011076 0.13838621,6.1586031 0.23335703,3.5265547 1.5400002e-7,0.99490396 Z"
       opacity="1"
       fill="#b21a25"
       fill-rule="evenodd"
       id="path2"
       style="fill:#2f549a;fill-opacity:1;stroke-width:1.35673" />
    <path
       d="m 135.84083,0.95691564 c 4.36323,-1.58736942 10.30162,-0.67564955 14.91992,-0.68921681 10.40066,-0.029848 20.80268,-0.0122105 31.2047,0.0461287 3.54919,0.0203509 7.09975,0.0501989 10.64894,0.12210534 1.08945,0.0217076 3.08791,-0.29712299 3.94265,0.39616399 4.65764,6.34947764 8.71832,13.22129514 13.11547,19.76071414 8.07252,12.005668 16.16674,24.019477 23.93536,36.225941 2.85183,4.481266 5.76608,8.924544 8.6342,13.393599 0.72856,1.132866 3.14218,3.868026 2.61984,5.217968 -2.16127,3.451511 -4.91813,6.608613 -7.23271,9.976007 -5.42012,7.886648 -10.51327,15.997154 -16.09212,23.773914 -2.01474,2.80842 -4.0729,5.56122 -6.20974,8.27874 -0.43687,0.5549 -1.28482,2.28337 -1.98218,2.35527 -1.81801,-4.52468 -5.28037,-8.79565 -8.01011,-12.81292 -4.58573,-6.747 -8.96253,-13.633736 -13.57404,-20.364454 C 178.56685,67.371367 165.95065,47.625577 153.25984,28.022243 149.42302,22.096063 145.51565,16.21737 141.66662,10.297974 139.6763,7.2399137 137.37936,4.2673271 135.84083,0.95691564 Z"
       opacity="1"
       fill="#cacccd"
       fill-rule="evenodd"
       id="path4"
       style="fill:#ffffff;fill-opacity:1;stroke-width:1.35673" />
    <path
       d="m 139.01422,298.35397 c 9.71958,-14.10046 18.56136,-29.16554 29.21709,-42.58492 1.64978,1.0379 2.57914,2.73652 3.7215,4.28319 2.18569,2.95766 4.25334,6.01301 6.31963,9.05343 7.0197,10.33147 13.83182,20.82439 21.03197,31.03375 2.25759,3.20187 4.48126,6.44445 6.85825,9.55813 0.98769,1.29296 3.02685,3.25343 3.21408,4.88693 -0.94835,2.0975 -2.53572,4.01048 -3.78798,5.9411 -3.27649,5.05517 -6.62625,10.0642 -9.99364,15.05831 -10.19173,15.11257 -20.55169,30.13966 -30.56433,45.3662 -1.99031,0.84931 -5.68739,0.24421 -7.8378,0.22929 -5.97638,-0.0421 -12.3245,-0.715 -18.2344,0.0651 -0.67565,-1.35537 -0.10311,-3.98606 -0.12482,-5.54087 -0.0665,-4.97783 -0.1818,-9.95294 -0.1913,-14.93213 -0.0285,-14.69741 -0.019,-29.39618 -0.0271,-44.09359 -0.001,-4.07018 -0.003,-8.14171 0.007,-12.21189 0.004,-1.94555 -0.38395,-4.29947 0.3921,-6.11205 z"
       opacity="1"
       fill="#cacccd"
       fill-rule="evenodd"
       id="path5"
       style="fill:#ffffff;fill-opacity:1;stroke-width:1.35673" />
    <path
       d="m 224.45811,136.3636 c 20.91393,-30.77869 41.28246,-62.05258 61.362,-93.38888 6.05507,-9.449597 12.31907,-18.774375 18.59257,-28.081515 2.08936,-3.098762 4.17329,-6.2178751 6.22195,-9.3437719 1.05824,-1.6158606 1.97539,-3.6088911 3.38503,-4.93305569 7.66279,-0.71228115 15.59149,-0.33782477 23.29363,-0.42058506 11.99753,-0.12888897 24.10631,-0.42465524 36.09298,0.12481879 -0.21301,0.92121696 -1.4327,1.99710066 -1.96454,2.82063336 -1.64299,2.545218 -3.30091,5.0877225 -4.9629,7.6248005 -5.14335,7.85273 -10.40066,15.636267 -15.47346,23.533769 -16.6009,25.844273 -33.83675,51.292383 -50.5082,77.091886 -4.98732,7.71841 -10.13474,15.33507 -15.099,23.06705 -1.82208,2.83692 -5.38078,6.13783 -6.35491,9.28408 1.91706,1.53581 3.4081,3.95214 4.80281,5.96552 2.80571,4.05254 5.50831,8.16749 8.25839,12.25667 8.6532,12.86583 17.30233,25.73845 25.97045,38.59207 28.13986,41.72611 56.06535,83.6001 84.24726,125.29907 9.51472,14.07875 19.18004,28.05981 28.41663,42.3285 2.2196,3.42844 4.63593,6.73207 6.81348,10.18901 0.24421,0.38531 2.03237,2.75008 1.92655,2.85319 -2.21689,0.41516 -5.35229,-0.0597 -7.68043,-0.0312 -6.39696,0.076 -12.80207,-0.0203 -19.20039,-0.0285 -17.6198,-0.0217 -35.29115,0.50063 -52.90146,-0.0231 -1.84107,-1.71761 -3.1069,-4.49619 -4.50026,-6.59911 -2.84641,-4.29675 -5.74709,-8.56094 -8.64641,-12.82242 -8.58129,-12.61348 -17.29147,-25.1537 -25.809,-37.80381 -3.78119,-5.61549 -7.0102,-13.02457 -12.13184,-17.53569 0.0855,-1.87771 2.24538,-4.32253 3.26021,-5.89361 2.45567,-3.79748 4.62915,-7.78354 7.03055,-11.61629 1.07589,-1.71762 3.13811,-3.95757 3.4583,-5.97638 -1.42049,-1.71626 -3.27243,-3.01193 -4.64136,-4.79196 -6.63439,-8.62335 -11.93241,-18.64006 -17.94542,-27.72876 -15.09629,-22.81606 -29.96058,-45.8085 -45.19118,-68.53502 -7.22728,-10.7819 -14.39215,-21.61671 -21.47291,-32.4963 -1.87906,-2.88575 -3.71878,-5.8095 -5.72809,-8.60842 -0.92258,-1.28754 -2.51673,-2.85456 -2.92103,-4.37273 z"
       opacity="1"
       fill="#c9cbcb"
       fill-rule="evenodd"
       id="path7"
       style="fill:#ffffff;fill-opacity:1;stroke-width:1.35673" />
    <path
       d="m 305.82639,142.26671 c 16.42181,-24.4577 32.13948,-49.420099 48.39442,-73.998547 14.85343,-22.459243 29.97686,-44.815374 44.21841,-67.65721249 8.90419,-0.72991859 18.13264,-0.10718136 27.07211,-0.11803517 18.09059,-0.0203509 36.17981,-0.0244211 54.2704,-0.0176374 9.68838,0.00407 19.49751,0.43957922 29.17096,-0.10582463 0.40567,2.73651629 -0.13838,5.67925499 0.28356,8.43747899 -3.91687,0.080047 -7.87579,0.91579 -11.49825,2.4122587 -3.09876,1.282106 -6.15818,2.897967 -8.78345,4.998179 -16.4001,13.114113 -14.76932,37.467345 -14.65806,56.272924 0.0244,4.000985 0.0502,8.00197 0.0285,12.002955 -0.37039,72.172401 0.007,144.401771 -0.13432,216.601301 -0.008,4.07018 -0.0122,8.139 -0.0136,12.20918 -0.0122,19.32385 -0.11532,44.68784 19.38083,55.30829 4.84352,2.63884 9.90275,3.52071 15.24418,4.40529 -0.13296,2.49367 -0.61053,5.77559 0.003,8.18242 -0.32426,0.34189 -2.0785,-0.11261 -2.57506,-0.13296 -2.48553,-0.1004 -4.98055,-0.0258 -7.46607,-0.0258 -7.62208,-0.001 -15.24553,0.0502 -22.86761,-0.0109 -2.81385,-0.0217 -7.13367,0.86288 -9.75893,-0.0719 -5.39163,-6.87996 -10.12254,-14.75439 -14.97283,-22.0468 -11.93648,-17.94405 -24.02762,-35.79857 -36.21916,-53.56897 -5.7281,-8.35064 -11.46433,-16.69451 -17.18972,-25.04651 -1.77324,-2.58728 -3.50849,-5.20305 -5.26545,-7.79982 -0.7964,-1.17628 -2.09614,-2.48552 -2.50723,-3.85853 -0.78283,-2.61713 -0.0773,-6.19346 -0.0733,-8.92726 0.0109,-6.55706 -0.01,-13.11411 -0.008,-19.67253 0.008,-21.93418 0.0909,-43.86973 0.0828,-65.80392 -10e-4,-6.3332 -0.0597,-12.66639 -0.0231,-18.99823 0.0136,-2.56422 0.75705,-6.31421 -0.14517,-8.69797 -3.63738,4.59116 -6.40239,10.20122 -9.55271,15.15734 -6.56655,10.33147 -13.44651,20.4635 -20.09989,30.73663 -2.59542,4.00641 -5.35771,7.90564 -8.0169,11.86999 -0.78011,1.16407 -1.78002,3.95486 -2.93459,4.62508 -9.41026,-15.82756 -20.52591,-30.78683 -30.7909,-46.07577 -3.18966,-4.7499 -6.44716,-9.46045 -9.57713,-14.24969 -1.12201,-1.71762 -3.06213,-3.55191 -3.40131,-5.58565 0.12889,-0.24963 0.25642,-0.49927 0.38395,-0.74891 z"
       opacity="1"
       fill="#b41b25"
       fill-rule="evenodd"
       id="path9"
       style="fill:#2f549a;fill-opacity:1;stroke-width:1.35673" />
  </g>
</svg>
